<svg width="101" height="101" viewBox="0 0 101 101" fill="none" xmlns="http://www.w3.org/2000/svg">
<g clip-path="url(#clip0_1319_4770)">
<path fill-rule="evenodd" clip-rule="evenodd" d="M64.6667 46.379V20.7368C64.6667 13.1358 58.5622 7 51 7C43.9844 7 38.29 12.3116 37.5156 19.1342L64.6667 46.379ZM78.6978 48.2105C76.83 48.2105 75.19 49.5842 74.9167 51.4616C74.6889 52.9268 74.37 54.3921 73.9144 55.72L79.7 61.5353C81.0667 58.7879 82.0689 55.8116 82.57 52.6521C82.8889 50.3168 81.0667 48.2105 78.6978 48.2105ZM13.2344 14.1432C11.4578 15.9289 11.4578 18.8137 13.2344 20.5995L37.3333 44.8679V46.8368C37.3333 52.2858 40.0667 57.46 44.7589 60.1616C48.1756 62.1305 51.1822 62.1763 53.9611 61.5811L61.5233 69.1821C58.2889 70.6932 54.69 71.5632 51 71.5632C39.4289 71.5632 28.7689 63.4584 27.0833 51.4616C26.81 49.5842 25.17 48.2105 23.3022 48.2105C20.9333 48.2105 19.1111 50.3168 19.43 52.6521C21.5256 66.2058 32.9144 76.9205 46.4444 78.9811V89.4211C46.4444 91.9395 48.4944 94 51 94C53.5056 94 55.5556 91.9395 55.5556 89.4211V78.9811C59.7011 78.3858 63.6189 76.9205 67.1722 74.86L83.0711 90.8405C84.8478 92.6263 87.7178 92.6263 89.4944 90.8405C91.2711 89.0547 91.2711 86.17 89.4944 84.3842L19.6578 14.1432C17.8811 12.3574 15.0111 12.3574 13.2344 14.1432Z" fill="#32363B"/>
</g>
<defs>
<clipPath id="clip0_1319_4770">
<rect width="82" height="87" fill="white" transform="translate(10 7)"/>
</clipPath>
</defs>
</svg>
