<svg width="59" height="59" viewBox="0 0 59 59" fill="none" xmlns="http://www.w3.org/2000/svg">
<g clip-path="url(#clip0_1319_4765)">
<path d="M12.4088 36.53L17.135 32.7724C17.6923 32.3322 18.1427 31.7714 18.4522 31.1322C18.7617 30.493 18.9222 29.7919 18.9219 29.0817L18.9219 22.936C26.0739 20.6062 33.7808 20.6062 40.9328 22.936L40.9328 29.1151C40.9328 30.5513 41.5841 31.904 42.7198 32.8058L47.4125 36.53C48.3219 37.25 49.4643 37.6104 50.6222 37.5427C51.7801 37.4749 52.8727 36.9837 53.6918 36.1626L56.581 33.2734C58.4681 31.3863 58.4681 28.2467 56.4641 26.4764C41.3169 13.0995 18.5211 13.1162 3.39063 26.4764C1.3866 28.2466 1.3866 31.3863 3.27373 33.2734L6.16288 36.1626C7.83291 37.866 10.5216 38.0163 12.4088 36.53Z" fill="white"/>
</g>
<defs>
<clipPath id="clip0_1319_4765">
<rect width="59" height="59" fill="white"/>
</clipPath>
</defs>
</svg>
