<svg width="101" height="101" viewBox="0 0 101 101" fill="none" xmlns="http://www.w3.org/2000/svg">
<g clip-path="url(#clip0_1319_4769)">
<path fill-rule="evenodd" clip-rule="evenodd" d="M51 62.2105C58.8257 62.2105 65.1429 55.9337 65.1429 48.1579V20.0526C65.1429 12.2768 58.8257 6 51 6C43.1743 6 36.8571 12.2768 36.8571 20.0526V48.1579C36.8571 55.9337 43.1743 62.2105 51 62.2105ZM74.5714 48.1579C74.5714 61.0863 64.0114 71.5789 51 71.5789C37.9886 71.5789 27.4286 61.0863 27.4286 48.1579H18C18 64.6932 30.3043 78.2774 46.2857 80.5726V95H55.7143V80.5726C71.6957 78.2774 84 64.6932 84 48.1579H74.5714Z" fill="#32363B"/>
</g>
<defs>
<clipPath id="clip0_1319_4769">
<rect width="66" height="89" fill="white" transform="translate(18 6)"/>
</clipPath>
</defs>
</svg>
