<svg width="21" height="21" viewBox="0 0 21 21" fill="none" xmlns="http://www.w3.org/2000/svg">
<path d="M3.00766 0.166748V3.02389H0.166748V4.92865H3.00766V7.7858H4.9016V4.92865H7.74251V3.02389H4.9016V0.166748H3.00766ZM8.68947 3.02389V5.88103H5.84857V8.73818H3.00766V18.262C3.00766 18.7672 3.2072 19.2516 3.56238 19.6089C3.91756 19.9661 4.39929 20.1667 4.9016 20.1667H18.1592C19.2103 20.1667 20.0531 19.3191 20.0531 18.262V17.3096H11.5304C11.0281 17.3096 10.5463 17.1089 10.1912 16.7517C9.83598 16.3945 9.63644 15.91 9.63644 15.4048V7.7858C9.63644 7.28062 9.83598 6.79614 10.1912 6.43893C10.5463 6.08171 11.0281 5.88103 11.5304 5.88103H20.0531V4.92865C20.0531 4.42348 19.8536 3.93899 19.4984 3.58178C19.1432 3.22457 18.6615 3.02389 18.1592 3.02389H8.68947ZM11.5304 7.7858V15.4048H21.0001V7.7858H11.5304ZM15.3183 10.1667C16.1042 10.1667 16.7387 10.8048 16.7387 11.5953C16.7387 12.3858 16.1042 13.0239 15.3183 13.0239C14.5323 13.0239 13.8978 12.3858 13.8978 11.5953C13.8978 10.8048 14.5323 10.1667 15.3183 10.1667Z" fill="#32363B"/>
</svg>
