<svg width="16" height="16" viewBox="0 0 16 16" fill="none" xmlns="http://www.w3.org/2000/svg">
<path d="M9.41464 2.68863H12.2198C12.6077 2.68863 12.9211 2.99636 12.9211 3.37726C12.9211 3.75815 12.6077 4.06589 12.2198 4.06589H9.73022C9.61626 4.62109 9.22836 5.07946 8.71335 5.29896V12.6227H12.2198C12.6077 12.6227 12.9211 12.9305 12.9211 13.3114C12.9211 13.6923 12.6077 14 12.2198 14H3.8043C3.41639 14 3.103 13.6923 3.103 13.3114C3.103 12.9305 3.41639 12.6227 3.8043 12.6227H7.31076V5.29896C6.79575 5.07731 6.40785 4.61894 6.29389 4.06589H3.8043C3.41639 4.06589 3.103 3.75815 3.103 3.37726C3.103 2.99636 3.41639 2.68863 3.8043 2.68863H6.60947C6.92943 2.27115 7.43787 2 8.01205 2C8.58624 2 9.09467 2.27115 9.41464 2.68863ZM10.6331 8.88629H13.8065L12.2198 6.21355L10.6331 8.88629ZM12.2198 10.9522C10.8413 10.9522 9.69516 10.2205 9.45847 9.25427C9.40149 9.01756 9.48038 8.77438 9.6053 8.56349L11.6916 5.05149C11.8012 4.86642 12.0028 4.75451 12.2198 4.75451C12.4368 4.75451 12.6384 4.86857 12.748 5.05149L14.8343 8.56349C14.9592 8.77438 15.0381 9.01756 14.9811 9.25427C14.7445 10.2205 13.5983 10.9522 12.2198 10.9522ZM3.778 6.21355L2.19132 8.88629H5.36686L3.778 6.21355ZM1.01885 9.25427C0.96187 9.01756 1.04077 8.77438 1.16568 8.56349L3.25203 5.05149C3.36161 4.86642 3.56323 4.75451 3.78019 4.75451C3.99715 4.75451 4.19877 4.86857 4.30835 5.05149L6.3947 8.56349C6.51961 8.77438 6.59851 9.01756 6.54153 9.25427C6.30265 10.2205 5.15648 10.9522 3.778 10.9522C2.39952 10.9522 1.25554 10.2205 1.01885 9.25427Z" fill="#32363B"/>
</svg>
