<svg width="40" height="40" viewBox="0 0 40 40" fill="none" xmlns="http://www.w3.org/2000/svg">
<circle cx="20" cy="20" r="20" fill="#FFF7E6"/>
<path d="M20.9825 9.5H19.0775C18.695 9.5 18.3875 9.8075 18.3875 10.19V11.0712C17.3236 11.3135 16.327 11.7895 15.47 12.4648V12.17C15.47 11.7875 15.1625 11.48 14.78 11.48H12.875C12.4925 11.48 12.185 11.7875 12.185 12.17V13.94C12.185 14.345 12.515 14.675 12.92 14.675H13.5822C13.2572 15.2566 13.013 15.8799 12.8562 16.5275H10.94C10.5575 16.5275 10.25 16.835 10.25 17.2175V18.995C10.25 19.4 10.58 19.73 10.985 19.73H12.7948C12.926 20.3825 13.1435 21.005 13.4345 21.5825H12.875C12.4925 21.5825 12.185 21.89 12.185 22.2725V24.0425C12.185 24.4475 12.515 24.7775 12.92 24.7775H14.7275C15.125 24.7775 15.4505 24.4595 15.4625 24.065C15.8075 24.3372 16.1788 24.5795 16.5703 24.788L14.4913 29.468H12.635C12.4986 29.468 12.3679 29.5222 12.2715 29.6186C12.175 29.715 12.1209 29.8458 12.1209 29.9821C12.1209 30.1185 12.175 30.2492 12.2715 30.3457C12.3679 30.4421 12.4986 30.4963 12.635 30.4963H28.0625C28.1988 30.4963 28.3294 30.4421 28.4258 30.3458C28.5221 30.2494 28.5763 30.1188 28.5763 29.9825C28.5763 29.8462 28.5221 29.7156 28.4258 29.6192C28.3294 29.5229 28.1988 29.4688 28.0625 29.4688H25.562L23.486 24.7902C23.8722 24.585 24.2394 24.3458 24.5833 24.0755C24.6005 24.4655 24.9237 24.7775 25.3175 24.7775H27.125C27.53 24.7775 27.86 24.4475 27.86 24.0425V22.895H27.8675V22.2725C27.8675 21.89 27.56 21.5825 27.1775 21.5825H26.6255C26.9165 21.005 27.134 20.3825 27.2653 19.73H29.06C29.465 19.73 29.795 19.4 29.795 18.995V17.84H29.8025V17.2175C29.8025 16.8425 29.495 16.5275 29.1125 16.5275H27.2038C27.047 15.8799 26.8028 15.2566 26.4777 14.675H27.125C27.53 14.675 27.86 14.345 27.86 13.94V12.7925H27.8675V12.17C27.8675 11.7875 27.56 11.48 27.1775 11.48H25.2725C24.89 11.48 24.5825 11.7875 24.5825 12.17V12.4588C23.7251 11.7848 22.7286 11.3101 21.665 11.069V10.8125H21.6725V10.19C21.6725 9.8075 21.365 9.5 20.9825 9.5ZM24.437 29.4688H15.6155L17.51 25.2057C17.7967 25.3103 18.0898 25.3964 18.3875 25.4637V26.585C18.3875 26.99 18.7175 27.32 19.1225 27.32H20.93C21.335 27.32 21.665 26.99 21.665 26.585V25.466C21.9641 25.3981 22.2586 25.3117 22.547 25.2073L24.437 29.4688ZM26.5175 17.8925H24.8757C24.7976 16.8628 24.3921 15.8852 23.7185 15.1025L24.6275 14.1935C24.6796 14.3346 24.7736 14.4564 24.897 14.5425C25.0203 14.6286 25.1671 14.6748 25.3175 14.675H25.6033C26.0658 15.3906 26.3852 16.1891 26.5438 17.0262C26.5261 17.0885 26.5173 17.1528 26.5175 17.2175V17.8925ZM21.8825 17.8925C21.8343 17.6522 21.7395 17.4237 21.6035 17.2198L23.186 15.635C23.7213 16.2744 24.0484 17.062 24.1235 17.8925H21.8825ZM24.4415 13.3175L23.1875 14.5738C22.406 13.9038 21.4313 13.5006 20.405 13.4225V12.695H20.93C21.335 12.695 21.665 12.365 21.665 11.96V11.84C22.6958 12.1021 23.6482 12.6089 24.4415 13.3175ZM22.6558 15.1055L21.0718 16.6902C20.8694 16.5563 20.6429 16.4628 20.405 16.415V14.1747C21.2323 14.2491 22.0173 14.5735 22.6558 15.1047V15.1055ZM19.655 12.695V13.4218C18.5945 13.5027 17.63 13.9243 16.868 14.5767L15.6147 13.322C16.4067 12.6132 17.3578 12.1056 18.3875 11.8423V11.96C18.3875 12.365 18.7175 12.695 19.1225 12.695H19.655ZM19.655 14.1747V16.415C19.4153 16.4632 19.1873 16.5577 18.9838 16.6932L17.4005 15.1085C18.0395 14.5752 18.826 14.2494 19.655 14.1747ZM18.4535 17.2242C18.3191 17.427 18.2254 17.654 18.1775 17.8925H15.9365C16.0115 17.064 16.3372 16.2781 16.8702 15.6395L18.4535 17.2242ZM15.1843 17.8925H13.535V17.2175C13.535 17.1575 13.5275 17.0998 13.5125 17.0443C13.6702 16.2005 13.9912 15.3957 14.4575 14.675H14.7282C14.8798 14.6748 15.0275 14.6279 15.1514 14.5407C15.2753 14.4534 15.3693 14.3301 15.4205 14.1875L16.3385 15.107C15.6672 15.889 15.2623 16.8649 15.1843 17.8925ZM13.5275 18.6425H15.1843C15.2623 19.6701 15.6664 20.646 16.3377 21.428L15.47 22.2965V22.2725C15.47 21.89 15.1625 21.5825 14.78 21.5825H14.2873C13.874 20.8687 13.5984 20.0836 13.475 19.268C13.5098 19.1812 13.5276 19.0885 13.5275 18.995V18.6425ZM15.6147 23.213L16.868 21.9583C17.0945 22.1525 17.3383 22.3258 17.5977 22.4757L16.8763 24.101C16.4227 23.855 15.9994 23.5569 15.6147 23.213ZM17.3997 21.4257L18.596 20.2295L17.9045 21.7858C17.7277 21.6786 17.5592 21.5582 17.4005 21.4257H17.3997ZM17.8152 24.5187L18.5367 22.8942C18.8938 23.009 19.268 23.084 19.655 23.1132V24.1175H19.0775C18.9138 24.117 18.7554 24.1749 18.6305 24.2807C18.5057 24.3866 18.4227 24.5335 18.3965 24.695C18.2001 24.6452 18.0062 24.5864 17.8152 24.5187ZM18.8435 22.2035L19.655 20.3773V22.361C19.3799 22.336 19.108 22.2833 18.8435 22.2035ZM20.405 24.1175V23.1132C20.7843 23.0846 21.1589 23.0114 21.521 22.895L22.241 24.5195C22.0512 24.5872 21.8582 24.6458 21.6627 24.695C21.6365 24.5336 21.5537 24.3868 21.429 24.281C21.3043 24.1751 21.146 24.1172 20.9825 24.1175H20.405ZM20.405 22.361V20.3802L21.215 22.2042C20.951 22.2836 20.6796 22.3362 20.405 22.361ZM23.1807 24.1025L22.4608 22.4772C22.7188 22.3272 22.9625 22.1547 23.1882 21.962L24.4415 23.2167C24.0572 23.5596 23.6344 23.8566 23.1815 24.1017L23.1807 24.1025ZM22.1532 21.7872L21.4678 20.2407L22.6558 21.4295C22.4983 21.5608 22.3302 21.68 22.1532 21.7872ZM21.6035 19.3153C21.737 19.115 21.8337 18.8877 21.8825 18.6425H24.1227C24.048 19.4728 23.7215 20.2604 23.1868 20.9L21.6035 19.3153ZM24.8757 18.6425H26.5175V18.995C26.5175 19.1015 26.54 19.2027 26.5812 19.2935C26.4559 20.1 26.1818 20.8762 25.7728 21.5825H25.2725C24.89 21.5825 24.5825 21.89 24.5825 22.2725V22.2965L23.7185 21.4325C24.3921 20.6498 24.7976 19.6722 24.8757 18.6425ZM15.9365 18.6425H18.1775C18.2262 18.8855 18.3215 19.1112 18.4535 19.31L16.8702 20.8955C16.3372 20.2569 16.0115 19.471 15.9365 18.6425Z" fill="#FFC857"/>
</svg>
