<svg width="16" height="14" viewBox="0 0 16 14" fill="none" xmlns="http://www.w3.org/2000/svg">
<path d="M10.6054 0.463945L14.3489 4.36015C15.8837 5.9572 15.8837 8.52454 14.3489 10.1216L11.0682 13.5357C10.7958 13.8189 10.3506 13.8219 10.0753 13.5417C9.79994 13.2615 9.79701 12.8034 10.0694 12.5202L13.3471 9.10611C14.3401 8.07254 14.3401 6.41221 13.3471 5.37865L9.60662 1.48244C9.33421 1.19919 9.33714 0.741169 9.61248 0.460931C9.88782 0.180694 10.333 0.183707 10.6054 0.466958V0.463945ZM0.5 6.20128V1.69639C0.5 0.897861 1.12976 0.25 1.90598 0.25H6.285C6.78295 0.25 7.2604 0.451892 7.61189 0.813488L12.5328 5.87584C13.2651 6.62917 13.2651 7.84956 12.5328 8.60288L8.62244 12.6256C7.89016 13.379 6.70387 13.379 5.97159 12.6256L1.05067 7.56329C0.696251 7.2017 0.5 6.71354 0.5 6.20128ZM4.71793 3.6249C4.71793 3.09155 4.29906 2.66064 3.78061 2.66064C3.26216 2.66064 2.84329 3.09155 2.84329 3.6249C2.84329 4.15826 3.26216 4.58916 3.78061 4.58916C4.29906 4.58916 4.71793 4.15826 4.71793 3.6249Z" fill="#32363B"/>
</svg>
