<svg width="40" height="40" viewBox="0 0 40 40" fill="none" xmlns="http://www.w3.org/2000/svg">
<circle cx="20" cy="20" r="20" fill="#DAF4F1"/>
<path fill-rule="evenodd" clip-rule="evenodd" d="M11 18.9053V27.0001C11 28.657 12.3431 30.0001 14 30.0001H17V24.0001C17 22.8956 17.8954 22.0001 19 22.0001H21C22.1046 22.0001 23 22.8956 23 24.0001V30.0001H26C27.6569 30.0001 29 28.657 29 27.0001V18.9053C29 18.0149 28.6045 17.1706 27.9206 16.6006L21.9206 11.6006C20.808 10.6735 19.192 10.6735 18.0794 11.6006L12.0794 16.6006C11.3955 17.1706 11 18.0149 11 18.9053Z" fill="#1E6274"/>
</svg>
