<svg width="18" height="18" viewBox="0 0 18 18" fill="none" xmlns="http://www.w3.org/2000/svg">
<path d="M11.6054 2.46394L15.3489 6.36015C16.8837 7.9572 16.8837 10.5245 15.3489 12.1216L12.0682 15.5357C11.7958 15.8189 11.3506 15.8219 11.0753 15.5417C10.7999 15.2615 10.797 14.8034 11.0694 14.5202L14.3471 11.1061C15.3401 10.0725 15.3401 8.41221 14.3471 7.37865L10.6066 3.48244C10.3342 3.19919 10.3371 2.74117 10.6125 2.46093C10.8878 2.18069 11.333 2.18371 11.6054 2.46696V2.46394ZM1.5 8.20128V3.69639C1.5 2.89786 2.12976 2.25 2.90598 2.25H7.285C7.78295 2.25 8.2604 2.45189 8.61189 2.81349L13.5328 7.87584C14.2651 8.62917 14.2651 9.84956 13.5328 10.6029L9.62244 14.6256C8.89016 15.379 7.70387 15.379 6.97159 14.6256L2.05067 9.56329C1.69625 9.2017 1.5 8.71354 1.5 8.20128ZM5.71793 5.6249C5.71793 5.09155 5.29906 4.66064 4.78061 4.66064C4.26216 4.66064 3.84329 5.09155 3.84329 5.6249C3.84329 6.15826 4.26216 6.58916 4.78061 6.58916C5.29906 6.58916 5.71793 6.15826 5.71793 5.6249Z" fill="#32363B"/>
</svg>
