<svg width="24" height="24" viewBox="0 0 24 24" fill="none" xmlns="http://www.w3.org/2000/svg">
<g id="heroicons:user-group-solid">
<g id="Group">
<path id="Vector" fill-rule="evenodd" clip-rule="evenodd" d="M8.25 6.75C8.25 5.75544 8.64509 4.80161 9.34835 4.09835C10.0516 3.39509 11.0054 3 12 3C12.9946 3 13.9484 3.39509 14.6517 4.09835C15.3549 4.80161 15.75 5.75544 15.75 6.75C15.75 7.74456 15.3549 8.69839 14.6517 9.40165C13.9484 10.1049 12.9946 10.5 12 10.5C11.0054 10.5 10.0516 10.1049 9.34835 9.40165C8.64509 8.69839 8.25 7.74456 8.25 6.75ZM15.75 9.75C15.75 8.95435 16.0661 8.19129 16.6287 7.62868C17.1913 7.06607 17.9544 6.75 18.75 6.75C19.5456 6.75 20.3087 7.06607 20.8713 7.62868C21.4339 8.19129 21.75 8.95435 21.75 9.75C21.75 10.5456 21.4339 11.3087 20.8713 11.8713C20.3087 12.4339 19.5456 12.75 18.75 12.75C17.9544 12.75 17.1913 12.4339 16.6287 11.8713C16.0661 11.3087 15.75 10.5456 15.75 9.75ZM2.25 9.75C2.25 8.95435 2.56607 8.19129 3.12868 7.62868C3.69129 7.06607 4.45435 6.75 5.25 6.75C6.04565 6.75 6.80871 7.06607 7.37132 7.62868C7.93393 8.19129 8.25 8.95435 8.25 9.75C8.25 10.5456 7.93393 11.3087 7.37132 11.8713C6.80871 12.4339 6.04565 12.75 5.25 12.75C4.45435 12.75 3.69129 12.4339 3.12868 11.8713C2.56607 11.3087 2.25 10.5456 2.25 9.75ZM6.31 15.117C6.91995 14.161 7.76108 13.3743 8.75562 12.8294C9.75016 12.2846 10.866 11.9994 12 12C12.9498 11.9991 13.8891 12.1989 14.7564 12.5862C15.6237 12.9734 16.3994 13.5395 17.0327 14.2474C17.6661 14.9552 18.1428 15.7888 18.4317 16.6936C18.7205 17.5985 18.815 18.5541 18.709 19.498C18.696 19.6153 18.6556 19.7278 18.591 19.8265C18.5263 19.9252 18.4393 20.0073 18.337 20.066C16.4086 21.1725 14.2233 21.7532 12 21.75C9.77662 21.7535 7.59133 21.1728 5.663 20.066C5.56069 20.0073 5.47368 19.9252 5.40904 19.8265C5.34441 19.7278 5.30396 19.6153 5.291 19.498C5.12305 17.9646 5.48246 16.4198 6.31 15.118V15.117Z" fill="#57C03C"/>
<path id="Vector_2" d="M5.08196 14.2539C4.09571 15.7763 3.63621 17.5802 3.77396 19.3889C3.17347 19.2979 2.58286 19.1505 2.00996 18.9489L1.89496 18.9089C1.79235 18.8725 1.70251 18.8071 1.63631 18.7207C1.5701 18.6342 1.53039 18.5305 1.52196 18.4219L1.51196 18.3009C1.47156 17.7989 1.53271 17.2938 1.69176 16.816C1.85081 16.3381 2.1045 15.8971 2.43768 15.5194C2.77087 15.1417 3.17673 14.835 3.63104 14.6176C4.08535 14.4001 4.5788 14.2765 5.08196 14.2539ZM20.226 19.3889C20.3637 17.5802 19.9042 15.7763 18.918 14.2539C19.4211 14.2765 19.9146 14.4001 20.3689 14.6176C20.8232 14.835 21.229 15.1417 21.5622 15.5194C21.8954 15.8971 22.1491 16.3381 22.3082 16.816C22.4672 17.2938 22.5284 17.7989 22.488 18.3009L22.478 18.4219C22.4693 18.5303 22.4295 18.6338 22.3633 18.7201C22.2972 18.8063 22.2074 18.8716 22.105 18.9079L21.99 18.9479C21.423 19.1479 20.834 19.2969 20.226 19.3889Z" fill="#57C03C"/>
</g>
</g>
</svg>
