<svg width="16" height="16" viewBox="0 0 16 16" fill="none" xmlns="http://www.w3.org/2000/svg">
<path d="M12.6666 2V4.66667M12.6666 14V7.33333M7.99992 2V10M7.99992 14V12.6667M3.33325 2V3.33333M3.33325 14V6" stroke="#7E8891" stroke-width="1.5" stroke-linecap="round"/>
<path d="M11.3333 5.99984C11.3333 6.73622 11.9303 7.33317 12.6667 7.33317C13.403 7.33317 14 6.73622 14 5.99984C14 5.26346 13.403 4.6665 12.6667 4.6665C11.9303 4.6665 11.3333 5.26346 11.3333 5.99984Z" stroke="#7E8891" stroke-width="1.5" stroke-linecap="round"/>
<path d="M6.66658 11.3333C6.66658 12.0697 7.26354 12.6667 7.99992 12.6667C8.7363 12.6667 9.33325 12.0697 9.33325 11.3333C9.33325 10.597 8.7363 10 7.99992 10C7.26354 10 6.66658 10.597 6.66658 11.3333Z" stroke="#7E8891" stroke-width="1.5" stroke-linecap="round"/>
<path d="M2.00008 4.66683C2.00008 5.40321 2.59703 6.00016 3.33341 6.00016C4.06979 6.00016 4.66675 5.40321 4.66675 4.66683C4.66675 3.93045 4.06979 3.3335 3.33341 3.3335C2.59703 3.3335 2.00008 3.93045 2.00008 4.66683Z" stroke="#7E8891" stroke-width="1.5" stroke-linecap="round"/>
</svg>
