<svg width="40" height="40" viewBox="0 0 40 40" fill="none" xmlns="http://www.w3.org/2000/svg">
<circle cx="20" cy="20" r="20" fill="#F2ECFB"/>
<path d="M30 18.5715V19.1429C30 19.6163 29.6269 20.0001 29.1667 20.0001H28.8889L27.9822 26.5282C27.8649 27.3727 27.1617 28 26.3323 28H13.6677C12.8383 28 12.1351 27.3727 12.0178 26.5282L11.1111 20.0001H10.8333C10.3731 20.0001 10 19.6163 10 19.1429V18.5715C10 18.0981 10.3731 17.7144 10.8333 17.7144H13.1716L16.8792 12.4708C17.2401 11.9604 17.935 11.8475 18.4313 12.2187C18.9276 12.59 19.0373 13.3047 18.6764 13.8152L15.9193 17.7144H24.0807L21.3236 13.8151C20.9627 13.3047 21.0724 12.5899 21.5687 12.2187C22.0649 11.8474 22.7599 11.9603 23.1208 12.4707L26.8284 17.7144H29.1667C29.6269 17.7144 30 18.0981 30 18.5715ZM20.8333 24.8572V20.8572C20.8333 20.3838 20.4602 20.0001 20 20.0001C19.5398 20.0001 19.1667 20.3838 19.1667 20.8572V24.8572C19.1667 25.3306 19.5398 25.7143 20 25.7143C20.4602 25.7143 20.8333 25.3306 20.8333 24.8572ZM24.7222 24.8572V20.8572C24.7222 20.3838 24.3491 20.0001 23.8889 20.0001C23.4286 20.0001 23.0556 20.3838 23.0556 20.8572V24.8572C23.0556 25.3306 23.4286 25.7143 23.8889 25.7143C24.3491 25.7143 24.7222 25.3306 24.7222 24.8572ZM16.9444 24.8572V20.8572C16.9444 20.3838 16.5714 20.0001 16.1111 20.0001C15.6509 20.0001 15.2778 20.3838 15.2778 20.8572V24.8572C15.2778 25.3306 15.6509 25.7143 16.1111 25.7143C16.5714 25.7143 16.9444 25.3306 16.9444 24.8572Z" fill="#A264FF"/>
</svg>
