<?xml version="1.0" encoding="UTF-8" standalone="no"?>
<!DOCTYPE svg PUBLIC "-//W3C//DTD SVG 1.1//EN" "http://www.w3.org/Graphics/SVG/1.1/DTD/svg11.dtd">
<svg width="100%" height="100%" viewBox="0 0 597 597" version="1.1" xmlns="http://www.w3.org/2000/svg" xmlns:xlink="http://www.w3.org/1999/xlink" xml:space="preserve" xmlns:serif="http://www.serif.com/" style="fill-rule:evenodd;clip-rule:evenodd;stroke-linejoin:round;stroke-miterlimit:2;">
    <g transform="matrix(1,0,0,1,-5417.37,-8440.82)">
        <g transform="matrix(1,0,0,1,592.371,-835.329)">
            <rect id="Artboard4" x="4825" y="9276.15" width="596.961" height="596.961" style="fill:none;"/>
            <g id="Artboard41" serif:id="Artboard4">
                <g transform="matrix(1.03033,-0.594861,0.594861,1.03033,774.41,6302.36)">
                    <path d="M1711.98,3987.3C1730.54,3976.58 1753.41,3976.58 1771.97,3987.3C1816.21,4012.84 1898.47,4060.33 1942.71,4085.87C1961.27,4096.59 1972.71,4116.39 1972.71,4137.82L1972.71,4334.98C1972.71,4356.41 1961.27,4376.21 1942.71,4386.93C1898.47,4412.47 1913.38,4406.61 1869.14,4432.15C1850.58,4442.87 1827.72,4442.87 1809.15,4432.15C1764.92,4406.61 1682.65,4359.12 1638.42,4333.58C1619.86,4322.86 1608.42,4303.06 1608.42,4281.62C1608.42,4230.54 1608.42,4135.56 1608.42,4084.47C1608.42,4063.04 1619.86,4043.24 1638.42,4032.52C1682.65,4006.98 1667.75,4012.84 1711.98,3987.3Z" style="fill:rgb(83,176,39);"/>
                </g>
                <g transform="matrix(1.03033,-0.594861,0.594861,1.03033,774.41,6302.36)">
                    <path d="M1711.98,3987.3C1730.54,3976.58 1753.41,3976.58 1771.97,3987.3C1816.21,4012.84 1898.47,4060.33 1942.71,4085.87C1961.27,4096.59 1972.71,4116.39 1972.71,4137.82L1972.71,4334.98C1972.71,4356.41 1961.27,4376.21 1942.71,4386.93C1898.47,4412.47 1987.79,4361.25 1943.55,4386.79C1924.99,4397.51 1902.12,4397.51 1883.56,4386.79C1839.33,4361.25 1757.06,4313.75 1712.83,4288.21C1694.26,4277.5 1682.83,4257.69 1682.83,4236.26C1682.83,4185.18 1682.83,4090.19 1682.83,4039.11C1682.83,4017.68 1694.26,3997.87 1712.83,3987.16C1757.06,3961.62 1667.75,4012.84 1711.98,3987.3Z" style="fill:rgb(53,128,17);"/>
                </g>
                <g transform="matrix(1.25274,0,0.630348,1.06603,-2855.28,-463.286)">
                    <path d="M1822.59,9256.24C1822.59,9237.47 1809.63,9222.24 1793.65,9222.24L1607.8,9222.24C1591.09,9222.24 1577.52,9238.18 1577.52,9257.82L1577.52,9448.25C1577.52,9458.77 1584.79,9467.31 1593.74,9467.31L1781.26,9467.31C1804.08,9467.31 1822.59,9445.55 1822.59,9418.74L1822.59,9256.24Z" style="fill:rgb(189,247,111);"/>
                </g>
                <g transform="matrix(0.864789,0,0.261245,0.441812,1334.79,5360.94)">
                    <path d="M1822.59,9282.06C1822.59,9249.04 1808.9,9222.24 1792.03,9222.24L1622.06,9222.24C1597.48,9222.24 1577.52,9261.31 1577.52,9309.43L1577.52,9421.59C1577.52,9446.82 1587.99,9467.31 1600.88,9467.31L1770.32,9467.31C1799.17,9467.31 1822.59,9421.46 1822.59,9364.98L1822.59,9282.06Z" style="fill:rgb(83,176,39);"/>
                </g>
                <g transform="matrix(0.147967,0,0.09246,0.147967,4192.56,8101.48)">
                    <path d="M1822.59,9344.77C1822.59,9277.14 1767.69,9222.24 1700.06,9222.24C1632.43,9222.24 1577.52,9277.14 1577.52,9344.77C1577.52,9412.4 1632.43,9467.31 1700.06,9467.31C1767.69,9467.31 1822.59,9412.4 1822.59,9344.77Z" style="fill:white;"/>
                </g>
            </g>
        </g>
    </g>
</svg>
