<svg width="24" height="24" viewBox="0 0 24 24" fill="none" xmlns="http://www.w3.org/2000/svg">
<path d="M4 5.25C4 4.65326 4.23705 4.08097 4.65901 3.65901C5.08097 3.23705 5.65326 3 6.25 3H15.75C16.3467 3 16.919 3.23705 17.341 3.65901C17.7629 4.08097 18 4.65326 18 5.25V14H22V17.75C22 18.1768 21.9159 18.5994 21.7526 18.9937C21.5893 19.388 21.3499 19.7463 21.0481 20.0481C20.7463 20.3499 20.388 20.5893 19.9937 20.7526C19.5994 20.9159 19.1768 21 18.75 21H11.978C12.6472 19.9554 13.0019 18.7405 13 17.5C13 15.49 12.087 13.692 10.654 12.5H13.75C13.9489 12.5 14.1397 12.421 14.2803 12.2803C14.421 12.1397 14.5 11.9489 14.5 11.75C14.5 11.5511 14.421 11.3603 14.2803 11.2197C14.1397 11.079 13.9489 11 13.75 11H8.25C8.09 11 7.943 11.05 7.821 11.134C6.53963 10.8698 5.20844 10.9966 4 11.498V5.25ZM18 19.5H18.75C19.2141 19.5 19.6592 19.3156 19.9874 18.9874C20.3156 18.6592 20.5 18.2141 20.5 17.75V15.5H18V19.5ZM7.5 7.75C7.5 8.164 7.836 8.5 8.25 8.5H13.75C13.9489 8.5 14.1397 8.42098 14.2803 8.28033C14.421 8.13968 14.5 7.94891 14.5 7.75C14.5 7.55109 14.421 7.36032 14.2803 7.21967C14.1397 7.07902 13.9489 7 13.75 7H8.25C8.05109 7 7.86032 7.07902 7.71967 7.21967C7.57902 7.36032 7.5 7.55109 7.5 7.75ZM12 17.5C12 16.7777 11.8577 16.0625 11.5813 15.3952C11.3049 14.728 10.8998 14.1216 10.3891 13.6109C9.87837 13.1002 9.27205 12.6951 8.60476 12.4187C7.93747 12.1423 7.22227 12 6.5 12C5.77773 12 5.06253 12.1423 4.39524 12.4187C3.72795 12.6951 3.12163 13.1002 2.61091 13.6109C2.10019 14.1216 1.69506 14.728 1.41866 15.3952C1.14226 16.0625 1 16.7777 1 17.5C1 18.9587 1.57946 20.3576 2.61091 21.3891C3.64236 22.4205 5.04131 23 6.5 23C7.95869 23 9.35764 22.4205 10.3891 21.3891C11.4205 20.3576 12 18.9587 12 17.5ZM7 18L7.001 20.503C7.001 20.6356 6.94832 20.7628 6.85455 20.8566C6.76079 20.9503 6.63361 21.003 6.501 21.003C6.36839 21.003 6.24121 20.9503 6.14745 20.8566C6.05368 20.7628 6.001 20.6356 6.001 20.503V18H3.496C3.36339 18 3.23621 17.9473 3.14245 17.8536C3.04868 17.7598 2.996 17.6326 2.996 17.5C2.996 17.3674 3.04868 17.2402 3.14245 17.1464C3.23621 17.0527 3.36339 17 3.496 17H6V14.5C6 14.3674 6.05268 14.2402 6.14645 14.1464C6.24021 14.0527 6.36739 14 6.5 14C6.63261 14 6.75979 14.0527 6.85355 14.1464C6.94732 14.2402 7 14.3674 7 14.5V17H9.497C9.62961 17 9.75679 17.0527 9.85055 17.1464C9.94432 17.2402 9.997 17.3674 9.997 17.5C9.997 17.6326 9.94432 17.7598 9.85055 17.8536C9.75679 17.9473 9.62961 18 9.497 18H7Z" fill="black"/>
</svg>
