<?xml version="1.0" encoding="UTF-8" standalone="no"?>
<!DOCTYPE svg PUBLIC "-//W3C//DTD SVG 1.1//EN" "http://www.w3.org/Graphics/SVG/1.1/DTD/svg11.dtd">
<svg width="100%" height="100%" viewBox="0 0 597 597" version="1.1" xmlns="http://www.w3.org/2000/svg" xmlns:xlink="http://www.w3.org/1999/xlink" xml:space="preserve" xmlns:serif="http://www.serif.com/" style="fill-rule:evenodd;clip-rule:evenodd;stroke-linejoin:round;stroke-miterlimit:2;">
    <g transform="matrix(1,0,0,1,-6817.59,-7560.71)">
        <g transform="matrix(1,0,0,1,1992.59,-1715.43)">
            <rect id="Artboard4" x="4825" y="9276.15" width="596.961" height="596.961" style="fill:none;"/>
            <g id="Artboard41" serif:id="Artboard4">
                <g transform="matrix(1.09676,-0.633215,0.633215,1.09676,494.001,6091.38)">
                    <path d="M1711.98,3987.3C1730.54,3976.58 1753.41,3976.58 1771.97,3987.3C1816.21,4012.84 1898.47,4060.33 1942.71,4085.87C1961.27,4096.59 1972.71,4116.39 1972.71,4137.82L1972.71,4334.98C1972.71,4356.41 1961.27,4376.21 1942.71,4386.93C1898.47,4412.47 1913.38,4406.61 1869.14,4432.15C1850.58,4442.87 1827.72,4442.87 1809.15,4432.15C1764.92,4406.61 1682.65,4359.12 1638.42,4333.58C1619.86,4322.86 1608.42,4303.06 1608.42,4281.62C1608.42,4230.54 1608.42,4135.56 1608.42,4084.47C1608.42,4063.04 1619.86,4043.24 1638.42,4032.52C1682.65,4006.98 1667.75,4012.84 1711.98,3987.3Z" style="fill:rgb(83,176,39);"/>
                </g>
                <g transform="matrix(9.26182,0,0,9.26182,-47136.8,-62768.2)">
                    <path d="M5627.12,7807.2L5634.06,7807.2C5634.97,7807.2 5635.69,7806.99 5636.23,7806.57C5636.76,7806.14 5637.03,7805.55 5637.03,7804.8C5637.03,7804.05 5636.76,7803.47 5636.23,7803.05C5635.69,7802.63 5634.97,7802.43 5634.06,7802.43L5626.52,7802.43L5628.37,7800.34L5628.37,7817.21L5624.29,7817.21L5624.29,7799.21L5634.53,7799.21C5635.85,7799.21 5637,7799.45 5637.99,7799.92C5638.98,7800.39 5639.76,7801.04 5640.32,7801.87C5640.88,7802.71 5641.16,7803.68 5641.16,7804.8C5641.16,7805.91 5640.88,7806.87 5640.32,7807.71C5639.76,7808.54 5638.98,7809.19 5637.99,7809.66C5637,7810.13 5635.85,7810.37 5634.53,7810.37L5627.12,7810.37L5627.12,7807.2ZM5630.24,7808.79L5634.9,7808.79L5641.69,7817.21L5636.91,7817.21L5630.24,7808.79Z" style="fill:white;fill-rule:nonzero;"/>
                    <path d="M5643.73,7803.55L5647.73,7803.55L5647.73,7807.9L5647.57,7808.43L5647.57,7811.71L5647.73,7812.7L5647.73,7821.17L5643.73,7821.17L5643.73,7803.55ZM5646.34,7810.39C5646.61,7808.94 5647.09,7807.67 5647.77,7806.59C5648.45,7805.51 5649.31,7804.67 5650.34,7804.08C5651.37,7803.49 5652.52,7803.19 5653.78,7803.19C5655.13,7803.19 5656.31,7803.49 5657.32,7804.09C5658.34,7804.69 5659.14,7805.53 5659.71,7806.61C5660.29,7807.69 5660.57,7808.95 5660.57,7810.39C5660.57,7811.82 5660.29,7813.07 5659.71,7814.15C5659.14,7815.23 5658.34,7816.07 5657.32,7816.67C5656.31,7817.27 5655.13,7817.57 5653.78,7817.57C5652.5,7817.57 5651.36,7817.27 5650.34,7816.68C5649.32,7816.09 5648.47,7815.25 5647.78,7814.17C5647.1,7813.09 5646.61,7811.83 5646.34,7810.39ZM5656.52,7810.39C5656.52,7809.59 5656.36,7808.89 5656.03,7808.27C5655.7,7807.65 5655.25,7807.17 5654.67,7806.83C5654.1,7806.49 5653.43,7806.31 5652.68,7806.31C5651.93,7806.31 5651.22,7806.49 5650.54,7806.83C5649.87,7807.17 5649.28,7807.65 5648.78,7808.27C5648.28,7808.89 5647.88,7809.59 5647.59,7810.39C5647.88,7811.19 5648.28,7811.9 5648.78,7812.51C5649.28,7813.11 5649.87,7813.59 5650.54,7813.93C5651.22,7814.28 5651.93,7814.45 5652.68,7814.45C5653.43,7814.45 5654.1,7814.28 5654.67,7813.93C5655.25,7813.59 5655.7,7813.11 5656.03,7812.51C5656.36,7811.9 5656.52,7811.19 5656.52,7810.39Z" style="fill:white;fill-rule:nonzero;"/>
                </g>
            </g>
        </g>
    </g>
</svg>
