<svg width="40" height="40" viewBox="0 0 40 40" fill="none" xmlns="http://www.w3.org/2000/svg">
<circle cx="20" cy="20" r="20" fill="#E9F8E8"/>
<path d="M19.1024 14.6H11.4508C11.0879 14.6 10.8743 14.1926 11.0806 13.8941L12.8131 11.3882C12.9811 11.1451 13.2578 11 13.5534 11H19.1024C19.3509 11 19.5524 11.2015 19.5524 11.45V14.15C19.5524 14.3985 19.3509 14.6 19.1024 14.6Z" fill="#57C03C"/>
<path d="M20.8983 14.6H28.5499C28.9128 14.6 29.1264 14.1926 28.9201 13.8941L27.1877 11.3882C27.0196 11.1451 26.7429 11 26.4474 11H20.8983C20.6498 11 20.4483 11.2015 20.4483 11.45V14.15C20.4483 14.3985 20.6498 14.6 20.8983 14.6Z" fill="#57C03C"/>
<path fill-rule="evenodd" clip-rule="evenodd" d="M11 16.4C11 15.9029 11.3838 15.5 11.8571 15.5H28.1429C28.6162 15.5 29 15.9029 29 16.4V27.2C29 28.1941 28.2325 29 27.2857 29H12.7143C11.7675 29 11 28.1941 11 27.2V16.4ZM17.4286 18.2C17.4286 17.7029 17.8123 17.3 18.2857 17.3H21.7143C22.1877 17.3 22.5714 17.7029 22.5714 18.2C22.5714 18.6971 22.1877 19.1 21.7143 19.1H18.2857C17.8123 19.1 17.4286 18.6971 17.4286 18.2Z" fill="#57C03C"/>
</svg>
