<svg width="40" height="40" viewBox="0 0 40 40" fill="none" xmlns="http://www.w3.org/2000/svg">
<circle cx="20" cy="20" r="20" fill="#EDECFB"/>
<path d="M14.4238 14.4H16.4V18H12.1738L13.3138 15.1538C13.4938 14.7 13.9325 14.4 14.4238 14.4ZM18.2 18V14.4H21.245C21.6088 14.4 21.9538 14.565 22.1825 14.85L24.7025 18H18.2ZM27.8075 18.0375L24.0575 13.35C23.375 12.495 22.34 12 21.245 12H14.4238C12.95 12 11.6263 12.8963 11.0825 14.2613L9.5225 18.165C8.63 18.5175 8 19.3838 8 20.4V24.6C8 25.2638 8.53625 25.8 9.2 25.8H10.4488C10.7338 27.5025 12.215 28.8 14 28.8C15.785 28.8 17.2663 27.5025 17.5513 25.8H22.4488C22.7338 27.5025 24.215 28.8 26 28.8C27.785 28.8 29.2663 27.5025 29.5513 25.8H30.8C31.4638 25.8 32 25.2638 32 24.6V22.8C32 20.355 30.17 18.3375 27.8075 18.0375ZM24.3013 24.6C24.3776 24.3741 24.4982 24.1656 24.6558 23.9867C24.8134 23.8078 25.0051 23.662 25.2195 23.5577C25.434 23.4535 25.6671 23.3929 25.9052 23.3795C26.1432 23.3661 26.3816 23.4001 26.6065 23.4796C26.8313 23.5591 27.0381 23.6825 27.2148 23.8425C27.3915 24.0026 27.5347 24.1963 27.636 24.4121C27.7373 24.628 27.7946 24.8619 27.8048 25.1002C27.8149 25.3384 27.7776 25.5763 27.695 25.8C27.6186 26.0259 27.4981 26.2344 27.3405 26.4133C27.1828 26.5922 26.9912 26.738 26.7767 26.8423C26.5622 26.9465 26.3292 27.0071 26.0911 27.0205C25.853 27.0339 25.6146 26.9999 25.3898 26.9204C25.165 26.8409 24.9582 26.7175 24.7814 26.5575C24.6047 26.3974 24.4615 26.2037 24.3603 25.9879C24.259 25.772 24.2016 25.5381 24.1915 25.2999C24.1814 25.0616 24.2187 24.8237 24.3013 24.6ZM14 23.4C14.4774 23.4 14.9352 23.5896 15.2728 23.9272C15.6104 24.2648 15.8 24.7226 15.8 25.2C15.8 25.6774 15.6104 26.1352 15.2728 26.4728C14.9352 26.8104 14.4774 27 14 27C13.5226 27 13.0648 26.8104 12.7272 26.4728C12.3896 26.1352 12.2 25.6774 12.2 25.2C12.2 24.7226 12.3896 24.2648 12.7272 23.9272C13.0648 23.5896 13.5226 23.4 14 23.4Z" fill="#4640D6"/>
</svg>
