<svg width="40" height="40" viewBox="0 0 40 40" fill="none" xmlns="http://www.w3.org/2000/svg">
<circle cx="20" cy="20" r="20" fill="#FBF2EC"/>
<path d="M24.1107 15.2005H24.1141H24.1107ZM28.371 14.0004H24.8932L25.2339 12.6631L26.6974 12.1737C27.0087 12.0698 27.1939 11.745 27.1042 11.4345C27.0814 11.3564 27.0426 11.2836 26.9903 11.2207C26.9379 11.1577 26.8731 11.1058 26.7998 11.0682C26.7264 11.0306 26.6461 11.008 26.5635 11.0018C26.481 10.9955 26.3981 11.0059 26.3197 11.0321L24.5247 11.6321C24.428 11.6645 24.3412 11.7201 24.272 11.794C24.2029 11.8678 24.1538 11.9575 24.129 12.0548L23.6337 14.0004H18.6282C18.2994 14.0004 18.0171 14.2487 18.0007 14.5716C17.9967 14.6527 18.0096 14.7338 18.0384 14.8099C18.0673 14.886 18.1116 14.9556 18.1687 15.0144C18.2257 15.0732 18.2944 15.12 18.3704 15.152C18.4464 15.184 18.5283 15.2005 18.611 15.2005H18.716L18.7542 15.5253C18.7632 15.6011 18.8003 15.6711 18.8584 15.7218C18.9165 15.7726 18.9916 15.8006 19.0693 15.8005C20.5588 15.8005 21.8826 16.2093 22.8931 16.9826C23.4552 17.4079 23.9109 17.9537 24.2253 18.5784C24.4013 18.9297 24.5311 19.3016 24.6118 19.6851C24.6278 19.7598 24.6729 19.8255 24.7374 19.8681C25.257 20.2142 25.6402 20.7246 25.8235 21.3142C26.0068 21.9039 25.9791 22.5374 25.7449 23.1094C25.7177 23.1757 25.7157 23.2493 25.7392 23.3168C25.8745 23.6976 25.9437 24.0979 25.9439 24.5012C25.9439 25.339 25.6537 26.1374 25.1266 26.7495C24.8278 27.0988 24.4519 27.3767 24.0274 27.5621C23.954 27.5939 23.8962 27.6528 23.8666 27.726C23.708 28.1318 23.484 28.5099 23.2032 28.8459C23.1916 28.8595 23.1841 28.8761 23.1817 28.8938C23.1792 28.9114 23.182 28.9294 23.1896 28.9456C23.1972 28.9618 23.2094 28.9755 23.2247 28.9851C23.2399 28.9947 23.2577 28.9999 23.2758 29H25.1552C25.6154 28.9982 26.0582 28.8272 26.3964 28.5208C26.7346 28.2145 26.9438 27.7949 26.9827 27.3446L28.2889 15.2005H28.3882C28.471 15.2006 28.5529 15.1842 28.6291 15.1522C28.7052 15.1203 28.7739 15.0735 28.8311 15.0147C28.8882 14.9559 28.9326 14.8863 28.9615 14.8101C28.9904 14.7339 29.0033 14.6528 28.9993 14.5716C28.9833 14.2487 28.6999 14.0004 28.371 14.0004Z" fill="#F58839"/>
<path d="M14.5263 22.4C14.6463 22.3994 14.7653 22.4224 14.8763 22.4674C14.9873 22.5125 15.0881 22.5788 15.173 22.6625L15.763 23.2441C15.7772 23.2581 15.794 23.2691 15.8124 23.2767C15.8309 23.2842 15.8507 23.2881 15.8707 23.2881C15.8907 23.2881 15.9105 23.2842 15.929 23.2767C15.9475 23.2691 15.9642 23.2581 15.9784 23.2441L16.5673 22.6625C16.6521 22.5788 16.753 22.5125 16.864 22.4674C16.975 22.4224 17.094 22.3994 17.214 22.4H24.6926C24.7326 22.4004 24.7722 22.393 24.8093 22.3783C24.8464 22.3636 24.8802 22.3418 24.9087 22.3143C24.9373 22.2867 24.96 22.2538 24.9757 22.2176C24.9913 22.1813 24.9996 22.1424 25 22.103V22.1C24.9996 21.7543 24.8783 21.4194 24.6565 21.1516C24.4347 20.8838 24.1261 20.6996 23.7826 20.63C23.7514 19.5166 23.288 18.5848 22.4317 17.93C21.6396 17.321 20.5813 17 19.3696 17H16.6304C14.0351 17 12.2771 18.4539 12.2174 20.63C11.8739 20.6996 11.5653 20.8838 11.3435 21.1516C11.1217 21.4194 11.0004 21.7543 11 22.1C11 22.1796 11.0321 22.2559 11.0891 22.3121C11.1462 22.3684 11.2236 22.4 11.3043 22.4H14.5263ZM17.4651 23.6C17.4251 23.6 17.3855 23.6077 17.3486 23.6228C17.3116 23.6378 17.2781 23.6599 17.2498 23.6878L16.4075 24.5184C16.2648 24.659 16.0713 24.738 15.8696 24.738C15.6678 24.738 15.4743 24.659 15.3316 24.5184L14.4893 23.6878C14.4611 23.6599 14.4275 23.6378 14.3905 23.6228C14.3536 23.6077 14.314 23.6 14.274 23.6H11.6338C11.4908 23.5994 11.3522 23.6486 11.2425 23.739C11.1328 23.8294 11.059 23.9551 11.0342 24.0939C11.0114 24.2281 10.9999 24.3639 11 24.5C11 25.6471 11.8039 26.5816 12.7979 26.6C12.8904 27.167 13.1141 27.6793 13.4508 28.0801C13.9488 28.673 14.6727 29 15.4891 29H20.5109C21.3273 29 22.0512 28.673 22.5492 28.0794C22.8859 27.6785 23.1096 27.1663 23.2021 26.5993C24.1961 26.5816 25 25.6471 25 24.4993C25.0001 24.3632 24.9886 24.2273 24.9658 24.0931C24.9408 23.9545 24.867 23.8289 24.7573 23.7387C24.6476 23.6485 24.5091 23.5993 24.3662 23.6H17.4651Z" fill="#F58839"/>
</svg>
