<svg width="10" height="10" viewBox="0 0 10 10" fill="none" xmlns="http://www.w3.org/2000/svg">
<g clip-path="url(#clip0_355_5455)">
<path d="M4.67857 0H7.17165C7.42679 0 7.67187 0.0996094 7.85268 0.275391L9.21674 1.60156C9.39754 1.77734 9.5 2.01563 9.5 2.26367V6.5625C9.5 7.08008 9.06808 7.5 8.53571 7.5H4.67857C4.14621 7.5 3.71429 7.08008 3.71429 6.5625V0.9375C3.71429 0.419922 4.14621 0 4.67857 0ZM1.46429 2.5H3.07143V3.75H1.78571V8.75H5.64286V8.125H6.92857V9.0625C6.92857 9.58008 6.49665 10 5.96429 10H1.46429C0.93192 10 0.5 9.58008 0.5 9.0625V3.4375C0.5 2.91992 0.93192 2.5 1.46429 2.5Z" fill="#32363B"/>
</g>
<defs>
<clipPath id="clip0_355_5455">
<rect width="9" height="10" fill="white" transform="translate(0.5)"/>
</clipPath>
</defs>
</svg>
