<svg width="20" height="20" viewBox="0 0 20 20" fill="none" xmlns="http://www.w3.org/2000/svg">
<path d="M1.24994 8.74996C1.24841 6.84741 1.96999 5.01537 3.26855 3.62489C4.56712 2.2344 6.3456 1.3894 8.24381 1.26101C10.142 1.13261 12.0181 1.73043 13.4921 2.93339C14.9661 4.13635 15.9278 5.85453 16.1824 7.73996C15.013 7.42081 13.78 7.41654 12.6084 7.72757C11.4367 8.03861 10.3682 8.65389 9.51103 9.51105C8.65387 10.3682 8.03859 11.4368 7.72755 12.6084C7.41652 13.78 7.42079 15.013 7.73994 16.1825C6.7723 16.0523 5.83964 15.7334 4.99494 15.2437L2.07244 16.2187C1.96447 16.2548 1.8487 16.2606 1.73764 16.2357C1.62657 16.2108 1.52442 16.156 1.44221 16.0773C1.36 15.9985 1.30086 15.8988 1.27116 15.7889C1.24146 15.6791 1.24234 15.5631 1.27369 15.4537L2.16369 12.34C1.56246 11.239 1.24821 10.0044 1.24994 8.74996ZM19.9999 14.375C19.9999 15.8668 19.4073 17.2975 18.3524 18.3524C17.2975 19.4073 15.8668 20 14.3749 20C12.8831 20 11.4524 19.4073 10.3975 18.3524C9.34258 17.2975 8.74994 15.8668 8.74994 14.375C8.74994 12.8831 9.34258 11.4524 10.3975 10.3975C11.4524 9.3426 12.8831 8.74996 14.3749 8.74996C15.8668 8.74996 17.2975 9.3426 18.3524 10.3975C19.4073 11.4524 19.9999 12.8831 19.9999 14.375ZM14.9999 11.875C14.9999 11.7092 14.9341 11.5502 14.8169 11.433C14.6997 11.3158 14.5407 11.25 14.3749 11.25C14.2092 11.25 14.0502 11.3158 13.933 11.433C13.8158 11.5502 13.7499 11.7092 13.7499 11.875V13.75H11.8749C11.7092 13.75 11.5502 13.8158 11.433 13.933C11.3158 14.0502 11.2499 14.2092 11.2499 14.375C11.2499 14.5407 11.3158 14.6997 11.433 14.8169C11.5502 14.9341 11.7092 15 11.8749 15H13.7499V16.875C13.7499 17.0407 13.8158 17.1997 13.933 17.3169C14.0502 17.4341 14.2092 17.5 14.3749 17.5C14.5407 17.5 14.6997 17.4341 14.8169 17.3169C14.9341 17.1997 14.9999 17.0407 14.9999 16.875V15H16.8749C17.0407 15 17.1997 14.9341 17.3169 14.8169C17.4341 14.6997 17.4999 14.5407 17.4999 14.375C17.4999 14.2092 17.4341 14.0502 17.3169 13.933C17.1997 13.8158 17.0407 13.75 16.8749 13.75H14.9999V11.875Z" fill="black"/>
</svg>
