<svg width="24" height="24" viewBox="0 0 24 24" fill="none" xmlns="http://www.w3.org/2000/svg">
<g clip-path="url(#clip0_1692_5199)">
<path d="M3.76496 18.314C3.33296 19.509 4.49096 20.667 5.68596 20.234L20.291 14.952C21.49 14.518 21.635 12.882 20.532 12.243L15.87 9.54397L11.707 13.707C11.5184 13.8891 11.2658 13.9899 11.0036 13.9876C10.7414 13.9854 10.4905 13.8802 10.3051 13.6948C10.1197 13.5094 10.0146 13.2586 10.0123 12.9964C10.01 12.7342 10.1108 12.4816 10.293 12.293L14.456 8.12997L11.756 3.46797C11.118 2.36497 9.48196 2.51097 9.04796 3.70897L3.76496 18.314Z" fill="#3CA8C0"/>
</g>
<defs>
<clipPath id="clip0_1692_5199">
<rect width="24" height="24" fill="white" transform="translate(24 24) rotate(-180)"/>
</clipPath>
</defs>
</svg>
