<svg width="24" height="24" viewBox="0 0 24 24" fill="none" xmlns="http://www.w3.org/2000/svg">
<g id="fluent:person-add-16-filled">
<path id="Vector" d="M14.439 7.6051C12.5136 7.91394 10.7602 8.89563 9.4905 10.3756C8.68969 10.1735 7.96795 9.73574 7.41866 9.11896C6.86937 8.50218 6.51779 7.73476 6.40943 6.91599C6.30106 6.09721 6.44088 5.26475 6.81081 4.52631C7.18073 3.78787 7.76373 3.17742 8.48439 2.77395C9.20505 2.37048 10.0302 2.19254 10.8531 2.26316C11.676 2.33379 12.4588 2.64972 13.1001 3.17008C13.7415 3.69045 14.212 4.3913 14.4507 5.18198C14.6894 5.97265 14.6853 6.81676 14.439 7.6051ZM8.4 12.0001C7.824 13.1251 7.5 14.4001 7.5 15.7501C7.5 17.7151 8.187 19.5181 9.333 20.9356C5.3325 20.4796 3 17.7046 3 15.0001V14.2501C3 13.6534 3.23705 13.0811 3.65901 12.6591C4.08097 12.2372 4.65326 12.0001 5.25 12.0001H8.4ZM15.75 22.5001C16.6364 22.5001 17.5142 22.3255 18.3331 21.9863C19.1521 21.6471 19.8962 21.1499 20.523 20.5231C21.1498 19.8963 21.647 19.1522 21.9862 18.3332C22.3254 17.5143 22.5 16.6365 22.5 15.7501C22.5 14.8637 22.3254 13.9859 21.9862 13.167C21.647 12.348 21.1498 11.6039 20.523 10.9771C19.8962 10.3503 19.1521 9.85313 18.3331 9.51391C17.5142 9.17469 16.6364 9.0001 15.75 9.0001C13.9598 9.0001 12.2429 9.71126 10.977 10.9771C9.71116 12.243 9 13.9599 9 15.7501C9 17.5403 9.71116 19.2572 10.977 20.5231C12.2429 21.7889 13.9598 22.5001 15.75 22.5001ZM15.75 12.0001C15.9489 12.0001 16.1397 12.0791 16.2803 12.2198C16.421 12.3604 16.5 12.5512 16.5 12.7501V15.0001H18.75C18.9489 15.0001 19.1397 15.0791 19.2803 15.2198C19.421 15.3604 19.5 15.5512 19.5 15.7501C19.5 15.949 19.421 16.1398 19.2803 16.2804C19.1397 16.4211 18.9489 16.5001 18.75 16.5001H16.5V18.7501C16.5 18.949 16.421 19.1398 16.2803 19.2804C16.1397 19.4211 15.9489 19.5001 15.75 19.5001C15.5511 19.5001 15.3603 19.4211 15.2197 19.2804C15.079 19.1398 15 18.949 15 18.7501V16.5001H12.75C12.5511 16.5001 12.3603 16.4211 12.2197 16.2804C12.079 16.1398 12 15.949 12 15.7501C12 15.5512 12.079 15.3604 12.2197 15.2198C12.3603 15.0791 12.5511 15.0001 12.75 15.0001H15V12.7501C15 12.5512 15.079 12.3604 15.2197 12.2198C15.3603 12.0791 15.5511 12.0001 15.75 12.0001Z" fill="#FFC857"/>
</g>
</svg>
