<svg width="24" height="24" viewBox="0 0 24 24" fill="none" xmlns="http://www.w3.org/2000/svg">
<g id="ri:p2p-fill">
<path id="Vector" d="M20 5C20 5.79565 19.6839 6.55871 19.1213 7.12132C18.5587 7.68393 17.7956 8 17 8C16.2044 8 15.4413 7.68393 14.8787 7.12132C14.3161 6.55871 14 5.79565 14 5C14 4.20435 14.3161 3.44129 14.8787 2.87868C15.4413 2.31607 16.2044 2 17 2C17.7956 2 18.5587 2.31607 19.1213 2.87868C19.6839 3.44129 20 4.20435 20 5ZM7 3C5.93913 3 4.92172 3.42143 4.17157 4.17157C3.42143 4.92172 3 5.93913 3 7V9H5V7C5 6.46957 5.21071 5.96086 5.58579 5.58579C5.96086 5.21071 6.46957 5 7 5H10V3H7ZM17 21C18.0609 21 19.0783 20.5786 19.8284 19.8284C20.5786 19.0783 21 18.0609 21 17V15H19V17C19 17.5304 18.7893 18.0391 18.4142 18.4142C18.0391 18.7893 17.5304 19 17 19H14V21H17ZM7 16C7.79565 16 8.55871 15.6839 9.12132 15.1213C9.68393 14.5587 10 13.7956 10 13C10 12.2044 9.68393 11.4413 9.12132 10.8787C8.55871 10.3161 7.79565 10 7 10C6.20435 10 5.44129 10.3161 4.87868 10.8787C4.31607 11.4413 4 12.2044 4 13C4 13.7956 4.31607 14.5587 4.87868 15.1213C5.44129 15.6839 6.20435 16 7 16ZM17 9C15.9391 9 14.9217 9.42143 14.1716 10.1716C13.4214 10.9217 13 11.9391 13 13H21C21 11.9391 20.5786 10.9217 19.8284 10.1716C19.0783 9.42143 18.0609 9 17 9ZM3 21C3 19.9391 3.42143 18.9217 4.17157 18.1716C4.92172 17.4214 5.93913 17 7 17C8.06087 17 9.07828 17.4214 9.82843 18.1716C10.5786 18.9217 11 19.9391 11 21H3Z" fill="#4640D6"/>
</g>
</svg>
