<?xml version="1.0" encoding="UTF-8" standalone="no"?>
<!DOCTYPE svg PUBLIC "-//W3C//DTD SVG 1.1//EN" "http://www.w3.org/Graphics/SVG/1.1/DTD/svg11.dtd">
<svg width="100%" height="100%" viewBox="0 0 504 504" version="1.1" xmlns="http://www.w3.org/2000/svg" xmlns:xlink="http://www.w3.org/1999/xlink" xml:space="preserve" xmlns:serif="http://www.serif.com/" style="fill-rule:evenodd;clip-rule:evenodd;stroke-linejoin:round;stroke-miterlimit:2;">
    <g transform="matrix(1,0,0,1,-13785,-3047)">
        <g transform="matrix(0.258965,0,0,0.258965,10215.1,2257.7)">
            <rect id="Artboard3" x="13785.4" y="3047.92" width="1943.07" height="1943.07" style="fill:none;"/>
            <g id="Artboard31" serif:id="Artboard3">
                <g transform="matrix(3.66785,0,0,3.66785,13291.7,2922.33)">
                    <path d="M399.8,45.4C540.2,45.4 654,159.2 654,299.6C654,440 540.2,553.7 399.9,553.7C259.5,553.7 145.8,439.9 145.8,299.6C145.7,159.2 259.5,45.4 399.8,45.4Z" style="fill:rgb(50,54,59);fill-rule:nonzero;"/>
                </g>
                <g transform="matrix(3.66785,0,0,3.66785,13291.7,2922.33)">
                    <clipPath id="_clip1">
                        <rect x="231.5" y="155.3" width="333.1" height="291.9"/>
                    </clipPath>
                    <g clip-path="url(#_clip1)">
                        <path d="M483.1,244.2C477,240.7 469.2,240.7 462.3,244.2L413.7,273L380.7,291.3L333,320C326.9,323.5 319.1,323.5 312.2,320L274.9,297.3C268.8,293.8 264.5,286.8 264.5,279L264.5,235.4C264.5,228.4 268,221.5 274.9,217.1L312.2,195.3C318.3,191.8 326.1,191.8 333,195.3L370.3,218C376.4,221.5 380.7,228.5 380.7,236.3L380.7,265.1L413.7,245.9L413.7,216.3C413.7,209.3 410.2,202.4 403.3,198L333.9,157C327.8,153.5 320,153.5 313.1,157L242,198.9C235.1,202.4 231.6,209.4 231.6,216.3L231.6,298.2C231.6,305.2 235.1,312.1 242,316.5L312.3,357.5C318.4,361 326.2,361 333.1,357.5L380.8,329.6L413.8,310.4L461.5,282.5C467.6,279 475.4,279 482.3,282.5L519.6,304.3C525.7,307.8 530,314.8 530,322.6L530,366.2C530,373.2 526.5,380.1 519.6,384.5L483.2,406.3C477.1,409.8 469.3,409.8 462.4,406.3L425,384.5C418.9,381 414.6,374 414.6,366.2L414.6,338.3L381.6,357.5L381.6,386.3C381.6,393.3 385.1,400.2 392,404.6L462.3,445.6C468.4,449.1 476.2,449.1 483.1,445.6L553.4,404.6C559.5,401.1 563.8,394.1 563.8,386.3L563.8,303.5C563.8,296.5 560.3,289.6 553.4,285.2L483.1,244.2Z" style="fill:white;fill-rule:nonzero;"/>
                    </g>
                </g>
            </g>
        </g>
    </g>
</svg>
