<svg width="24" height="24" viewBox="0 0 24 24" fill="none" xmlns="http://www.w3.org/2000/svg">
<path fill-rule="evenodd" clip-rule="evenodd" d="M16.525 2H16.593C17.477 2 18.19 2 18.763 2.055C19.355 2.111 19.871 2.23 20.334 2.514C20.804 2.802 21.198 3.196 21.486 3.666C21.77 4.129 21.889 4.645 21.946 5.236C22 5.81 22 6.524 22 7.407V7.477C22 8.057 22 8.541 21.963 8.935C21.923 9.347 21.839 9.73 21.623 10.082C21.413 10.426 21.123 10.715 20.778 10.926C20.427 11.142 20.043 11.226 19.632 11.266C19.238 11.303 18.753 11.303 18.172 11.303H17.068C16.232 11.303 15.535 11.303 14.982 11.229C14.398 11.15 13.871 10.978 13.447 10.554C13.023 10.13 12.851 9.604 12.772 9.019C12.698 8.466 12.698 7.769 12.698 6.933V5.827C12.698 5.247 12.698 4.762 12.735 4.368C12.775 3.957 12.859 3.573 13.075 3.222C13.285 2.877 13.575 2.588 13.919 2.377C14.271 2.161 14.654 2.077 15.066 2.037C15.459 2 15.944 2 16.525 2ZM17.349 7.814C16.869 7.814 16.629 7.814 16.46 7.694C16.4004 7.65166 16.3483 7.5996 16.306 7.54C16.186 7.37 16.186 7.13 16.186 6.651C16.186 6.171 16.186 5.932 16.306 5.763C16.3482 5.70304 16.4003 5.65064 16.46 5.608C16.63 5.488 16.87 5.488 17.349 5.488C17.829 5.488 18.068 5.488 18.237 5.608C18.2968 5.65081 18.3492 5.70317 18.392 5.763C18.512 5.932 18.512 6.172 18.512 6.651C18.512 7.131 18.512 7.371 18.392 7.54C18.3494 7.59969 18.297 7.65175 18.237 7.694C18.068 7.814 17.828 7.814 17.349 7.814ZM10.08 2.377C9.73 2.161 9.346 2.077 8.934 2.037C8.54 2 8.056 2 7.475 2H7.407C6.523 2 5.81 2 5.237 2.055C4.645 2.111 4.129 2.23 3.666 2.514C3.196 2.802 2.802 3.196 2.514 3.666C2.23 4.129 2.111 4.645 2.054 5.236C2 5.81 2 6.524 2 7.407V7.477C2 8.057 2 8.541 2.037 8.935C2.077 9.347 2.161 9.73 2.377 10.082C2.587 10.426 2.877 10.715 3.222 10.926C3.573 11.142 3.957 11.226 4.368 11.266C4.762 11.303 5.246 11.303 5.828 11.303H6.932C7.768 11.303 8.465 11.303 9.018 11.229C9.602 11.15 10.129 10.978 10.553 10.554C10.977 10.13 11.149 9.604 11.228 9.019C11.302 8.466 11.302 7.769 11.302 6.933V5.827C11.302 5.247 11.302 4.762 11.265 4.368C11.225 3.957 11.141 3.573 10.925 3.222C10.7143 2.87771 10.425 2.58816 10.081 2.377H10.08ZM5.764 7.694C5.933 7.814 6.173 7.814 6.652 7.814C7.132 7.814 7.372 7.814 7.541 7.694C7.60063 7.65169 7.65269 7.59963 7.695 7.54C7.815 7.37 7.815 7.13 7.815 6.651C7.815 6.171 7.815 5.932 7.695 5.763C7.65278 5.70301 7.60071 5.65061 7.541 5.608C7.371 5.488 7.131 5.488 6.652 5.488C6.172 5.488 5.933 5.488 5.764 5.608C5.70394 5.65053 5.65153 5.70294 5.609 5.763C5.489 5.932 5.489 6.172 5.489 6.651C5.489 7.131 5.489 7.371 5.609 7.54C5.65161 7.59971 5.70401 7.65178 5.764 7.694ZM9.018 12.772C9.602 12.851 10.129 13.023 10.553 13.447C10.977 13.871 11.149 14.397 11.228 14.982C11.302 15.535 11.302 16.232 11.302 17.068V18.173C11.302 18.753 11.302 19.238 11.265 19.632C11.225 20.043 11.141 20.427 10.925 20.778C10.715 21.123 10.425 21.412 10.081 21.623C9.729 21.839 9.346 21.923 8.934 21.963C8.54 22 8.056 22 7.475 22H7.407C6.523 22 5.81 22 5.237 21.945C4.645 21.889 4.129 21.77 3.666 21.486C3.19647 21.1983 2.80171 20.8035 2.514 20.334C2.23 19.871 2.111 19.355 2.054 18.764C2 18.19 2 17.477 2 16.593V16.523C2 15.943 2 15.458 2.037 15.065C2.077 14.653 2.161 14.27 2.377 13.918C2.587 13.574 2.877 13.285 3.222 13.074C3.573 12.858 3.957 12.774 4.368 12.734C4.762 12.697 5.246 12.697 5.828 12.697H6.932C7.768 12.697 8.465 12.697 9.018 12.771V12.772ZM6.651 18.512C6.171 18.512 5.932 18.512 5.763 18.392C5.70296 18.3495 5.65055 18.297 5.608 18.237C5.488 18.068 5.488 17.828 5.488 17.349C5.488 16.869 5.488 16.629 5.608 16.46C5.65064 16.4003 5.70304 16.3482 5.763 16.306C5.932 16.186 6.172 16.186 6.651 16.186C7.131 16.186 7.371 16.186 7.54 16.306C7.6 16.349 7.651 16.401 7.694 16.46C7.814 16.63 7.814 16.87 7.814 17.349C7.814 17.829 7.814 18.068 7.694 18.237C7.65175 18.297 7.59969 18.3494 7.54 18.392C7.37 18.512 7.13 18.512 6.651 18.512Z" fill="#143209"/>
<path d="M12.698 16.616V16.651H14.093C14.093 15.983 14.093 15.535 14.129 15.193C14.162 14.863 14.222 14.711 14.289 14.61C14.3735 14.483 14.4823 14.3739 14.609 14.289C14.711 14.222 14.863 14.162 15.193 14.129C15.535 14.094 15.983 14.093 16.651 14.093H18.511V12.698H16.616C15.993 12.698 15.473 12.698 15.052 12.74C14.612 12.785 14.203 12.883 13.835 13.129C13.555 13.315 13.315 13.555 13.129 13.835C12.883 14.203 12.785 14.612 12.74 15.052C12.698 15.472 12.698 15.992 12.698 16.616ZM22 18.535V18.512H20.605C20.605 18.955 20.605 19.252 20.589 19.482C20.573 19.706 20.546 19.815 20.516 19.887C20.4576 20.0283 20.3719 20.1567 20.2638 20.2648C20.1557 20.3729 20.0273 20.4586 19.886 20.517C19.816 20.546 19.706 20.573 19.482 20.589C19.252 20.604 18.955 20.605 18.512 20.605H16.652V22H18.535C18.949 22 19.294 22 19.577 21.98C19.8661 21.9687 20.1513 21.9095 20.421 21.805C21.0475 21.5453 21.5453 21.0475 21.805 20.421C21.917 20.151 21.961 19.872 21.981 19.577C22 19.294 22 18.949 22 18.535ZM14.093 21.302C14.0966 21.3958 14.0812 21.4894 14.0477 21.5771C14.0142 21.6648 13.9634 21.7449 13.8983 21.8125C13.8332 21.8802 13.7551 21.934 13.6687 21.9707C13.5823 22.0075 13.4894 22.0264 13.3955 22.0264C13.3016 22.0264 13.2087 22.0075 13.1223 21.9707C13.0359 21.934 12.9578 21.8802 12.8927 21.8125C12.8276 21.7449 12.7768 21.6648 12.7433 21.5771C12.7099 21.4894 12.6945 21.3958 12.698 21.302V18.512H14.093V21.302ZM21.302 12.698C21.1172 12.6983 20.9401 12.7718 20.8094 12.9024C20.6788 13.0331 20.6053 13.2102 20.605 13.395V16.651H22V13.395C21.9997 13.2101 21.9261 13.0328 21.7952 12.9021C21.6643 12.7714 21.487 12.698 21.302 12.698ZM16.076 16.617C16 16.801 16 17.034 16 17.5C16 17.966 16 18.199 16.076 18.383C16.1777 18.6275 16.3723 18.8217 16.617 18.923C16.801 19 17.034 19 17.5 19C17.966 19 18.199 19 18.383 18.924C18.6275 18.8223 18.8218 18.6277 18.923 18.383C19 18.199 19 17.966 19 17.5C19 17.034 19 16.801 18.924 16.617C18.8223 16.3725 18.6277 16.1783 18.383 16.077C18.199 16 17.966 16 17.5 16C17.034 16 16.801 16 16.617 16.076C16.3725 16.1777 16.1773 16.3723 16.076 16.617Z" fill="#143209"/>
</svg>
