<svg width="18" height="18" viewBox="0 0 18 18" fill="none" xmlns="http://www.w3.org/2000/svg">
<path d="M15.1364 0H9.81818V10L12.5126 7.3364C12.6672 7.19109 12.8732 7.11128 13.0866 7.11398C13.2999 7.11668 13.5038 7.20168 13.6546 7.35086C13.8055 7.50004 13.8915 7.70159 13.8942 7.91255C13.8969 8.1235 13.8162 8.32716 13.6693 8.48011L9.57835 12.5251C9.42493 12.6767 9.2169 12.7618 9 12.7618C8.7831 12.7618 8.57507 12.6767 8.42165 12.5251L4.33074 8.48011C4.18378 8.32716 4.10306 8.1235 4.10579 7.91255C4.10852 7.70159 4.19449 7.50004 4.34536 7.35086C4.49623 7.20168 4.70008 7.11668 4.91343 7.11398C5.12678 7.11128 5.33276 7.19109 5.48744 7.3364L8.18182 10V0H2.86364C2.1044 0.000803035 1.3765 0.299374 0.839637 0.830202C0.302777 1.36103 0.000812161 2.08076 0 2.83146V15.1685C0.000812161 15.9192 0.302777 16.639 0.839637 17.1698C1.3765 17.7006 2.1044 17.9992 2.86364 18H15.1364C15.8956 17.9992 16.6235 17.7006 17.1604 17.1698C17.6972 16.639 17.9992 15.9192 18 15.1685V2.83146C17.9992 2.08076 17.6972 1.36103 17.1604 0.830202C16.6235 0.299374 15.8956 0.000803035 15.1364 0Z" fill="#4640D6"/>
</svg>
