<svg width="24" height="24" viewBox="0 0 24 24" fill="none" xmlns="http://www.w3.org/2000/svg">
<g clip-path="url(#clip0_988_1531)">
<path d="M10.7846 2.82905C11.1541 2.61572 11.5733 2.50342 11.9999 2.50342C12.4266 2.50342 12.8457 2.61572 13.2152 2.82905L19.3344 6.36113C19.7038 6.57445 20.0107 6.88127 20.224 7.25075C20.4373 7.62023 20.5496 8.03935 20.5496 8.466V15.5321C20.5496 15.9587 20.4373 16.3779 20.224 16.7473C20.0107 17.1168 19.7038 17.4236 19.3344 17.637L13.2152 21.17C12.8457 21.3833 12.4266 21.4957 11.9999 21.4957C11.5733 21.4957 11.1541 21.3833 10.7846 21.17L4.66547 17.637C4.29599 17.4236 3.98917 17.1168 3.77584 16.7473C3.56252 16.3779 3.45021 15.9587 3.4502 15.5321V8.46697C3.45004 8.04016 3.56227 7.62084 3.7756 7.25117C3.98893 6.88151 4.29585 6.57454 4.66547 6.36113L10.7846 2.82905ZM11.9999 9.08336C11.2264 9.08336 10.4845 9.39065 9.93752 9.93763C9.39054 10.4846 9.08325 11.2265 9.08325 12C9.08325 12.7736 9.39054 13.5154 9.93752 14.0624C10.4845 14.6094 11.2264 14.9167 11.9999 14.9167C12.7735 14.9167 13.5153 14.6094 14.0623 14.0624C14.6093 13.5154 14.9166 12.7736 14.9166 12C14.9166 11.2265 14.6093 10.4846 14.0623 9.93763C13.5153 9.39065 12.7735 9.08336 11.9999 9.08336Z" fill="#32363B"/>
</g>
<defs>
<clipPath id="clip0_988_1531">
<rect width="23.3333" height="23.3333" fill="white" transform="translate(0.333008 0.333344)"/>
</clipPath>
</defs>
</svg>
