<svg width="40" height="40" viewBox="0 0 40 40" fill="none" xmlns="http://www.w3.org/2000/svg">
<circle cx="20" cy="19.9999" r="16.6667" fill="#AEF964"/>
<path d="M15.8333 16.6667H22.5C22.7361 16.6667 22.9338 16.5867 23.0933 16.4267C23.2533 16.2673 23.3333 16.0695 23.3333 15.8334C23.3333 15.5973 23.2533 15.3992 23.0933 15.2392C22.9338 15.0798 22.7361 15.0001 22.5 15.0001H15.8333C15.5972 15.0001 15.3991 15.0798 15.2391 15.2392C15.0797 15.3992 15 15.5973 15 15.8334C15 16.0695 15.0797 16.2673 15.2391 16.4267C15.3991 16.5867 15.5972 16.6667 15.8333 16.6667ZM18.8958 26.6667H13.3333C12.875 26.6667 12.4825 26.5037 12.1558 26.1776C11.8297 25.8509 11.6666 25.4584 11.6666 25.0001V13.3334C11.6666 12.8751 11.8297 12.4826 12.1558 12.1559C12.4825 11.8298 12.875 11.6667 13.3333 11.6667H25C25.4583 11.6667 25.8508 11.8298 26.1775 12.1559C26.5036 12.4826 26.6666 12.8751 26.6666 13.3334V18.9167C26.2638 18.7223 25.8577 18.5765 25.4483 18.4792C25.0383 18.382 24.6111 18.3334 24.1666 18.3334C24.0138 18.3334 23.8716 18.3367 23.74 18.3434C23.6077 18.3506 23.4722 18.3681 23.3333 18.3959C23.2083 18.3681 23.0694 18.3506 22.9166 18.3434C22.7638 18.3367 22.625 18.3334 22.5 18.3334H15.8333C15.5972 18.3334 15.3991 18.4131 15.2391 18.5726C15.0797 18.7326 15 18.9306 15 19.1667C15 19.4029 15.0797 19.6006 15.2391 19.7601C15.3991 19.9201 15.5972 20.0001 15.8333 20.0001H20.1041C19.8541 20.2362 19.6283 20.4931 19.4266 20.7709C19.2255 21.0487 19.0486 21.3473 18.8958 21.6667H15.8333C15.5972 21.6667 15.3991 21.7465 15.2391 21.9059C15.0797 22.0659 15 22.264 15 22.5001C15 22.7362 15.0797 22.934 15.2391 23.0934C15.3991 23.2534 15.5972 23.3334 15.8333 23.3334H18.3958C18.368 23.4723 18.3505 23.6079 18.3433 23.7401C18.3366 23.8717 18.3333 24.014 18.3333 24.1667C18.3333 24.6251 18.375 25.0523 18.4583 25.4484C18.5416 25.844 18.6875 26.2501 18.8958 26.6667Z" fill="#32363B"/>
<path fill-rule="evenodd" clip-rule="evenodd" d="M24.1667 28.3333C26.4679 28.3333 28.3333 26.4679 28.3333 24.1667C28.3333 21.8655 26.4679 20 24.1667 20C21.8655 20 20 21.8655 20 24.1667C20 26.4679 21.8655 28.3333 24.1667 28.3333ZM24.4667 22.3146C24.4667 22.1489 24.3324 22.0146 24.1667 22.0146C24.001 22.0146 23.8667 22.1489 23.8667 22.3146V24.2359C23.8667 24.3776 23.9658 24.4999 24.1043 24.5294L25.9562 24.9229C26.1182 24.9573 26.2775 24.8538 26.312 24.6918C26.3464 24.5297 26.2429 24.3704 26.0809 24.336L24.4667 23.993V22.3146Z" fill="#32363B"/>
</svg>
