<svg width="18" height="18" viewBox="0 0 18 18" fill="none" xmlns="http://www.w3.org/2000/svg">
<g id="Close">
<path id="Union" d="M5.31963 4.01268C4.96863 3.66864 4.39285 3.66164 4.03358 3.99705C3.67432 4.33246 3.66763 4.88327 4.01863 5.22731L7.84109 8.97396L4.0178 12.7214C3.66713 13.0651 3.66027 13.6292 4.00247 13.9814C4.34467 14.3335 4.90634 14.3403 5.25701 13.9966L9.1112 10.2189L12.6904 13.7271C13.0414 14.0712 13.6172 14.0782 13.9765 13.7428C14.3357 13.4073 14.3424 12.8565 13.9914 12.5125L10.3813 8.97396L13.93 5.49561C14.2807 5.1519 14.2876 4.58781 13.9454 4.23568C13.6032 3.88354 13.0415 3.87671 12.6908 4.22041L9.1112 7.72905L5.31963 4.01268Z" fill="#32363B"/>
</g>
</svg>
